<svg t="1695885855179" class="icon" viewBox="0 0 1024 1024" version="1.1" xmlns="http://www.w3.org/2000/svg" p-id="6471" width="32" height="32"><path d="M512 1024C229.668571 1024 0 794.331429 0 512S229.668571 0 512 0s512 229.668571 512 512-229.668571 512-512 512z m0-994.742857C245.76 29.257143 29.257143 245.76 29.257143 512s216.502857 482.742857 482.742857 482.742857 482.742857-216.502857 482.742857-482.742857S778.24 29.257143 512 29.257143z" p-id="6472"></path><path d="M724.114286 370.102857h-424.228572l2.925715-30.72c4.388571-33.645714 32.182857-59.977143 67.291428-59.977143h283.794286c35.108571 0 62.902857 26.331429 67.291428 59.977143l2.925715 30.72z m-392.045715-29.257143h358.4c-2.925714-17.554286-19.017143-32.182857-38.034285-32.182857H370.102857c-19.017143 0-35.108571 14.628571-38.034286 32.182857z" p-id="6473"></path><path d="M694.857143 806.034286h-365.714286c-19.017143 0-36.571429-8.777143-49.737143-21.942857-13.165714-14.628571-19.017143-33.645714-17.554285-52.662858l40.96-390.582857h418.377142L762.148571 731.428571c1.462857 19.017143-4.388571 38.034286-16.091428 52.662858-13.165714 13.165714-32.182857 21.942857-51.2 21.942857z m-365.714286-435.931429l-38.034286 364.251429c-1.462857 10.24 2.925714 21.942857 10.24 29.257143 7.314286 8.777143 17.554286 13.165714 27.794286 13.165714h367.177143c10.24 0 20.48-4.388571 27.794286-13.165714 7.314286-8.777143 10.24-19.017143 8.777143-29.257143l-38.034286-364.251429h-365.714286z" p-id="6474"></path><path d="M512 630.491429l-89.234286-90.697143 38.034286-51.2h102.4l38.034286 51.2zM375.954286 334.994286c-1.462857 0-4.388571 0-5.851429-1.462857-7.314286-2.925714-10.24-11.702857-7.314286-19.017143 26.331429-58.514286 84.845714-96.548571 149.211429-96.548572 64.365714 0 122.88 38.034286 149.211429 96.548572 2.925714 7.314286 0 16.091429-7.314286 19.017143-7.314286 2.925714-16.091429 0-19.017143-7.314286-21.942857-48.274286-70.217143-78.994286-122.88-78.994286-52.662857 0-100.937143 30.72-122.88 78.994286-1.462857 5.851429-7.314286 8.777143-13.165714 8.777143z" p-id="6475"></path></svg>





